<svg width="126" height="13" viewBox="0 0 126 13" fill="none" xmlns="http://www.w3.org/2000/svg">
<g id="IBERBANCO">
<path d="M0.777344 0.168534H3.33745V12.7123H0.777344V0.168534Z" fill="#2046A1"/>
<path d="M6.58775 0.168534H13.289C14.1076 0.168534 14.8192 0.256813 15.4237 0.433373C16.0337 0.604582 16.5393 0.842669 16.9405 1.14763C17.3418 1.4526 17.6387 1.81642 17.8314 2.23909C18.0293 2.65641 18.1283 3.10851 18.1283 3.59539C18.1283 4.39258 17.8768 5.09079 17.3739 5.69002C17.9517 6.03244 18.3824 6.47651 18.666 7.02224C18.9496 7.56797 19.0913 8.1886 19.0913 8.88414C19.0913 9.46732 18.9924 9.99432 18.7944 10.4651C18.6018 10.936 18.3049 11.3399 17.9036 11.677C17.5077 12.0087 17.0047 12.2655 16.3948 12.4474C15.7902 12.624 15.076 12.7123 14.252 12.7123H6.58775V0.168534ZM14.2681 4.98379C14.4874 4.98379 14.7014 4.99181 14.9101 5.00786C15.2686 4.66544 15.4478 4.27487 15.4478 3.83615C15.4478 3.38138 15.2686 3.03093 14.9101 2.78482C14.557 2.53336 14.038 2.40763 13.3532 2.40763H9.1318V4.98379H14.2681ZM14.3162 10.4972C15.0011 10.4972 15.52 10.3501 15.8732 10.0559C16.2316 9.76158 16.4109 9.34694 16.4109 8.81191C16.4109 8.27688 16.2316 7.85956 15.8732 7.55994C15.52 7.26033 15.0011 7.11052 14.3162 7.11052H9.1318V10.4972H14.3162Z" fill="#2046A1"/>
<path d="M21.6755 0.168534H32.3574V2.3996H24.2196V4.90353H31.4264V6.99817H24.2196V10.4892H32.5259V12.7123H21.6755V0.168534Z" fill="#2046A1"/>
<path d="M35.3508 0.168534H41.7311C42.6941 0.168534 43.5287 0.270189 44.235 0.4735C44.9412 0.67146 45.5271 0.960375 45.9925 1.34025C46.458 1.72011 46.8031 2.18291 47.0278 2.72864C47.2579 3.27437 47.3729 3.89233 47.3729 4.58251C47.3729 5.04799 47.3167 5.49206 47.2044 5.91473C47.092 6.33206 46.9181 6.71728 46.6827 7.07039C46.4527 7.42351 46.1611 7.73918 45.808 8.01739C45.4548 8.29026 45.0402 8.51764 44.564 8.69955L47.2927 12.7123H44.1788L41.8193 9.14898H41.7471L37.8949 9.14095V12.7123H35.3508V0.168534ZM41.7953 6.94199C42.2768 6.94199 42.6968 6.88581 43.0552 6.77345C43.4191 6.6611 43.7214 6.50326 43.9621 6.29995C44.2082 6.09664 44.3901 5.85053 44.5078 5.56162C44.6309 5.26735 44.6924 4.94098 44.6924 4.58251C44.6924 3.88163 44.4517 3.34125 43.9701 2.96138C43.4886 2.57616 42.7637 2.38355 41.7953 2.38355H37.8949V6.94199H41.7953Z" fill="#2046A1"/>
<path d="M50.3905 0.168534H57.0917C57.9103 0.168534 58.6219 0.256813 59.2265 0.433373C59.8364 0.604582 60.342 0.842669 60.7433 1.14763C61.1445 1.4526 61.4415 1.81642 61.6341 2.23909C61.8321 2.65641 61.931 3.10851 61.931 3.59539C61.931 4.39258 61.6796 5.09079 61.1766 5.69002C61.7545 6.03244 62.1852 6.47651 62.4687 7.02224C62.7523 7.56797 62.8941 8.1886 62.8941 8.88414C62.8941 9.46732 62.7951 9.99432 62.5971 10.4651C62.4045 10.936 62.1076 11.3399 61.7063 11.677C61.3104 12.0087 60.8075 12.2655 60.1975 12.4474C59.593 12.624 58.8787 12.7123 58.0548 12.7123H50.3905V0.168534ZM58.0708 4.98379C58.2902 4.98379 58.5042 4.99181 58.7128 5.00786C59.0713 4.66544 59.2505 4.27487 59.2505 3.83615C59.2505 3.38138 59.0713 3.03093 58.7128 2.78482C58.3597 2.53336 57.8407 2.40763 57.1559 2.40763H52.9345V4.98379H58.0708ZM58.119 10.4972C58.8038 10.4972 59.3228 10.3501 59.6759 10.0559C60.0344 9.76158 60.2136 9.34694 60.2136 8.81191C60.2136 8.27688 60.0344 7.85956 59.6759 7.55994C59.3228 7.26033 58.8038 7.11052 58.119 7.11052H52.9345V10.4972H58.119Z" fill="#2046A1"/>
<path d="M69.7558 0.168534H72.4524L78.5196 12.7123H75.8471L74.8439 10.6016H67.5167L66.5456 12.7123H63.8652L69.7558 0.168534ZM73.8408 8.50694L71.1282 2.8089L68.4878 8.50694H73.8408Z" fill="#2046A1"/>
<path d="M80.4537 0.168534H82.9978L90.8145 4.2615V0.168534H93.3586V12.7123H90.8145V6.95804L82.9978 2.88915V12.7123H80.4537V0.168534Z" fill="#2046A1"/>
<path d="M96.1434 6.36416C96.1434 5.47066 96.3119 4.63869 96.649 3.86825C96.9861 3.09246 97.4729 2.421 98.1096 1.85387C98.7516 1.28139 99.5328 0.831968 100.453 0.505601C101.379 0.179234 102.425 0.0160508 103.591 0.0160508C104.613 0.0160508 105.549 0.120381 106.4 0.329042C107.256 0.532353 108.05 0.845344 108.783 1.26802L107.612 3.19412C107.392 3.04966 107.138 2.92125 106.849 2.8089C106.566 2.69654 106.261 2.60291 105.934 2.52801C105.613 2.44775 105.279 2.38622 104.931 2.34342C104.589 2.30062 104.249 2.27922 103.912 2.27922C103.099 2.27922 102.374 2.38087 101.737 2.58418C101.1 2.78215 100.563 3.06304 100.124 3.42685C99.6906 3.78532 99.3589 4.21602 99.1288 4.71895C98.9041 5.21652 98.7918 5.76493 98.7918 6.36416C98.7918 6.98479 98.9095 7.55459 99.1449 8.07357C99.3803 8.59255 99.7201 9.04197 100.164 9.42184C100.614 9.79636 101.159 10.0906 101.801 10.3046C102.449 10.5133 103.179 10.6176 103.992 10.6176C104.361 10.6176 104.728 10.5909 105.092 10.5374C105.456 10.4839 105.806 10.4116 106.143 10.3207C106.485 10.2244 106.815 10.112 107.13 9.98362C107.446 9.84986 107.74 9.70541 108.013 9.55025L109.185 11.4763C108.5 11.9151 107.708 12.2602 106.809 12.5116C105.91 12.7577 104.955 12.8808 103.944 12.8808C102.655 12.8808 101.523 12.7149 100.549 12.3832C99.5756 12.0462 98.7624 11.586 98.1096 11.0028C97.4569 10.4143 96.9647 9.72413 96.6329 8.93229C96.3066 8.1351 96.1434 7.27906 96.1434 6.36416Z" fill="#2046A1"/>
<path d="M111.255 6.40428C111.255 5.45728 111.429 4.59054 111.777 3.80405C112.125 3.01756 112.612 2.34342 113.238 1.78164C113.869 1.21451 114.623 0.775791 115.501 0.465474C116.383 0.155158 117.36 0 118.43 0C119.495 0 120.468 0.155158 121.351 0.465474C122.234 0.775791 122.988 1.21451 123.614 1.78164C124.246 2.34342 124.735 3.01756 125.083 3.80405C125.431 4.59054 125.605 5.45728 125.605 6.40428C125.605 7.35663 125.431 8.23141 125.083 9.0286C124.735 9.82044 124.246 10.5026 123.614 11.0751C122.988 11.6476 122.234 12.0943 121.351 12.4153C120.468 12.731 119.495 12.8888 118.43 12.8888C117.36 12.8888 116.383 12.731 115.501 12.4153C114.623 12.0943 113.869 11.6476 113.238 11.0751C112.612 10.5026 112.125 9.82044 111.777 9.0286C111.429 8.23141 111.255 7.35663 111.255 6.40428ZM113.799 6.40428C113.799 7.05167 113.914 7.63485 114.144 8.15383C114.38 8.6728 114.704 9.11688 115.115 9.48604C115.533 9.84986 116.022 10.1308 116.584 10.3287C117.151 10.5267 117.767 10.6257 118.43 10.6257C119.093 10.6257 119.706 10.5267 120.268 10.3287C120.835 10.1308 121.324 9.84986 121.736 9.48604C122.148 9.11688 122.472 8.6728 122.708 8.15383C122.943 7.63485 123.061 7.05167 123.061 6.40428C123.061 5.7569 122.943 5.1764 122.708 4.66277C122.472 4.14914 122.148 3.71577 121.736 3.36265C121.324 3.00418 120.835 2.73132 120.268 2.54406C119.706 2.3568 119.093 2.26317 118.43 2.26317C117.767 2.26317 117.151 2.3568 116.584 2.54406C116.022 2.73132 115.533 3.00418 115.115 3.36265C114.704 3.71577 114.38 4.14914 114.144 4.66277C113.914 5.1764 113.799 5.7569 113.799 6.40428Z" fill="#2046A1"/>
</g>
</svg>
