<svg width="34" height="39" viewBox="0 0 34 39" fill="none" xmlns="http://www.w3.org/2000/svg">
<g id="Frame">
<path id="Polygon 1" d="M16.5937 0L33.1873 9.58035V28.7411L16.5937 38.3214L0 28.7411V9.58035L16.5937 0Z" fill="#2046A1"/>
<g id="Union">
<path d="M24.5184 15.335C25.2021 15.335 25.2998 15.0192 24.7356 14.6332L17.7456 9.07732C17.1816 8.69139 16.2564 8.68853 15.6899 9.0711L8.58904 14.6393C8.02256 15.022 8.11834 15.335 8.80195 15.335L24.5184 15.335Z" fill="white"/>
<path d="M8.62365 26.0831C8.3503 26.0831 8.12647 25.8594 8.12647 25.5859L8.12645 25.2954C8.12645 25.022 8.3503 24.7983 8.62363 24.7983H9.51743C9.79077 24.7983 10.0007 24.7378 9.99851 24.7138C9.99634 24.6901 10.1112 24.3536 10.2461 24.2939C10.3808 24.2343 10.7148 24.1852 10.9883 24.1852H11.6044C11.8778 24.1852 12.4218 24.2945 12.4844 24.4278C12.5469 24.5613 12.5926 24.7335 12.5875 24.7565C12.5823 24.7794 12.8018 24.7983 13.0751 24.7983H15.0355C15.3089 24.7983 15.5189 24.7378 15.5167 24.7138C15.5144 24.6901 15.6295 24.3536 15.7641 24.2939C15.8989 24.2343 16.2329 24.1852 16.5063 24.1852H17.1223C17.3958 24.1852 17.9399 24.2945 18.0024 24.4278C18.0649 24.5613 18.1108 24.7335 18.1055 24.7565C18.1004 24.7794 18.3199 24.7983 18.5932 24.7983H20.5535C20.8269 24.7983 21.0368 24.7378 21.0348 24.7138C21.0325 24.6901 21.1476 24.3536 21.2823 24.2939C21.4171 24.2343 21.7509 24.1852 22.0243 24.1852H22.6406C22.914 24.1852 23.458 24.2945 23.5205 24.4278C23.583 24.5613 23.6288 24.7335 23.6236 24.7565C23.6185 24.7794 23.838 24.7983 24.1113 24.7983H24.608C24.8815 24.7983 25.1051 25.022 25.1051 25.2954V25.5859C25.1051 25.8594 24.8815 26.0831 24.608 26.0831H8.62365Z" fill="white"/>
<path d="M9.99423 24.6785C9.99405 24.6808 9.99386 24.6771 9.99386 24.6705C9.99386 24.6636 9.99423 24.6642 9.99429 24.6665C9.99442 24.6688 9.99442 24.6765 9.99423 24.6785Z" fill="white"/>
<path d="M15.5121 24.6705C15.5121 24.6771 15.5123 24.6808 15.5123 24.6785C15.5125 24.6765 15.5125 24.6688 15.5124 24.6665C15.5123 24.6642 15.5121 24.6636 15.5121 24.6705Z" fill="white"/>
<path d="M18.1164 24.6665C18.1163 24.6688 18.1163 24.6724 18.1164 24.6745C18.1164 24.6757 18.1165 24.6764 18.1166 24.6756C18.1166 24.6749 18.1167 24.6734 18.1167 24.6705C18.1167 24.6667 18.1166 24.6652 18.1165 24.665C18.1165 24.6649 18.1165 24.665 18.1164 24.6653L18.1164 24.6659L18.1164 24.6665Z" fill="white"/>
<path d="M21.0305 24.6785C21.0302 24.6808 21.0302 24.6771 21.0302 24.6705C21.0302 24.6636 21.0302 24.6642 21.0305 24.6665C21.0308 24.6688 21.0306 24.6765 21.0305 24.6785Z" fill="white"/>
<path d="M23.6345 24.6665C23.6342 24.6688 23.6342 24.6724 23.6345 24.6745C23.6346 24.6757 23.6346 24.6764 23.6346 24.6756C23.6347 24.675 23.6347 24.6735 23.6347 24.6705C23.6347 24.6675 23.6347 24.666 23.6346 24.6653L23.6346 24.6649C23.6346 24.6649 23.6346 24.6656 23.6345 24.6665Z" fill="white"/>
<path d="M12.5984 24.6665C12.5981 24.6688 12.5981 24.6724 12.5984 24.6745C12.5985 24.6766 12.5986 24.6771 12.5986 24.6705C12.5986 24.6636 12.5985 24.6642 12.5984 24.6665Z" fill="white"/>
<path d="M18.1166 23.5575C18.1166 23.8309 17.8927 24.0548 17.6194 24.0548H16.0091C15.7357 24.0548 15.5121 23.8309 15.5121 23.5575V18.3867C15.5121 18.1132 15.7357 17.8896 16.0091 17.8896H17.6194C17.8927 17.8896 18.1166 18.1132 18.1166 18.3867V23.5575Z" fill="white"/>
<path d="M23.1375 24.0548C23.4109 24.0548 23.6346 23.8309 23.6346 23.5575V18.3867C23.6346 18.1132 23.411 17.8896 23.1375 17.8896H21.5272C21.2538 17.8896 21.0301 18.1132 21.0301 18.3867V23.5575C21.0301 23.8309 21.2537 24.0548 21.5272 24.0548H23.1375Z" fill="white"/>
<path d="M12.5985 23.5575C12.5985 23.8309 12.3748 24.0548 12.1013 24.0548H10.491C10.2176 24.0548 9.9938 23.8309 9.9938 23.5575V18.3867C9.9938 18.1132 10.2176 17.8896 10.491 17.8896H12.1013C12.3748 17.8896 12.5985 18.1132 12.5985 18.3867V23.5575Z" fill="white"/>
<path d="M21.2786 17.5801C21.4154 17.6416 21.7509 17.6919 22.0243 17.6919H22.6406C22.914 17.6919 23.2495 17.6416 23.3862 17.5801C23.5229 17.5185 23.6347 17.1267 23.6347 17.0433C23.6347 16.96 23.8584 16.8918 24.1319 16.8918H24.608C24.8815 16.8918 25.1051 16.6681 25.1051 16.3947V16.1042C25.1051 15.8306 24.8815 15.607 24.608 15.607H8.62364C8.35031 15.607 8.12646 15.8306 8.12646 16.1042V16.3947C8.12646 16.6681 8.35029 16.8918 8.62364 16.8918H9.49681C9.77014 16.8918 9.99386 16.96 9.99386 17.0433C9.99386 17.1267 10.0442 17.3065 10.1058 17.4434C10.1673 17.5801 10.7148 17.6919 10.9883 17.6919H11.6044C11.8778 17.6919 12.2132 17.6416 12.3501 17.5801C12.4867 17.5185 12.5985 17.1267 12.5985 17.0433C12.5985 16.96 12.8224 16.8918 13.0957 16.8918H15.015C15.2883 16.8918 15.5122 16.96 15.5122 17.0433C15.5122 17.1267 15.5625 17.3065 15.6239 17.4434C15.6854 17.5801 16.2329 17.6919 16.5063 17.6919H17.1224C17.3958 17.6919 17.7315 17.6416 17.8681 17.5801C18.0046 17.5185 18.1167 17.1267 18.1167 17.0433C18.1167 16.96 18.3405 16.8918 18.6139 16.8918H20.533C20.8064 16.8918 21.0302 16.96 21.0302 17.0433C21.0302 17.1267 21.142 17.5185 21.2786 17.5801Z" fill="white"/>
<path d="M26.2806 26.2573C26.5803 26.2573 26.8256 26.5027 26.8256 26.8027V26.9972C26.8256 27.297 26.5803 27.5424 26.2806 27.5424H6.95119C6.6514 27.5424 6.40601 27.297 6.40601 26.9972V26.8027C6.40601 26.5027 6.6514 26.2573 6.95119 26.2573H26.2806Z" fill="white"/>
</g>
</g>
</svg>
