<svg width="32" height="32" viewBox="0 0 32 32" fill="none" xmlns="http://www.w3.org/2000/svg">
<g id="icon/bitcoin-refresh">
<g id="vector">
<path fill-rule="evenodd" clip-rule="evenodd" d="M3.63824 11.9067C3.90395 11.9063 4.1589 12.0117 4.34678 12.1995L6.66678 14.5195C7.05731 14.9101 7.05731 15.5432 6.66678 15.9337C6.27626 16.3243 5.6431 16.3243 5.25257 15.9338L3.64172 14.3229L2.04215 15.9317C1.65275 16.3234 1.01959 16.3252 0.627939 15.9358C0.236292 15.5464 0.23447 14.9132 0.623869 14.5216L2.93054 12.2016C3.11789 12.0132 3.37252 11.907 3.63824 11.9067Z" fill="#979797"/>
<path fill-rule="evenodd" clip-rule="evenodd" d="M25.3326 16.0663C25.7231 15.6757 26.3563 15.6757 26.7468 16.0662L28.3597 17.6791L29.9726 16.0662C30.3631 15.6757 30.9963 15.6757 31.3868 16.0663C31.7773 16.4568 31.7773 17.0899 31.3868 17.4805L29.0668 19.8005C28.6762 20.191 28.0431 20.191 27.6526 19.8005L25.3326 17.4805C24.942 17.0899 24.942 16.4568 25.3326 16.0663Z" fill="#979797"/>
<path fill-rule="evenodd" clip-rule="evenodd" d="M5.58097 7.65264C8.02808 4.61533 11.7891 2.65332 15.9997 2.65332C23.3646 2.65332 29.3463 8.62035 29.3463 16V19.0933C29.3463 19.6456 28.8986 20.0933 28.3463 20.0933C27.7941 20.0933 27.3463 19.6456 27.3463 19.0933V16C27.3463 9.72632 22.2614 4.65332 15.9997 4.65332C12.4236 4.65332 9.22459 6.31806 7.13837 8.90742C6.79187 9.33749 6.16234 9.40523 5.73228 9.05873C5.30221 8.71223 5.23447 8.0827 5.58097 7.65264Z" fill="#979797"/>
<path fill-rule="evenodd" clip-rule="evenodd" d="M3.653 11.9067C4.20529 11.9067 4.653 12.3544 4.653 12.9067V16C4.653 22.2737 9.73792 27.3467 15.9997 27.3467C19.5758 27.3467 22.7748 25.6819 24.861 23.0926C25.2075 22.6625 25.837 22.5948 26.2671 22.9413C26.6971 23.2878 26.7649 23.9173 26.4184 24.3474C23.9713 27.3847 20.2102 29.3467 15.9997 29.3467C8.63476 29.3467 2.653 23.3797 2.653 16V12.9067C2.653 12.3544 3.10072 11.9067 3.653 11.9067Z" fill="#979797"/>
<path fill-rule="evenodd" clip-rule="evenodd" d="M10.9997 11.3333C10.9997 10.781 11.4474 10.3333 11.9997 10.3333H17.8397C19.7215 10.3333 21.173 11.9913 21.173 13.6667C21.173 15.5123 19.6853 17 17.8397 17H11.9997C11.4474 17 10.9997 16.5523 10.9997 16V11.3333ZM12.9997 12.3333V15H17.8397C18.5807 15 19.173 14.4077 19.173 13.6667C19.173 13.0221 18.5445 12.3333 17.8397 12.3333H12.9997Z" fill="#979797"/>
<path fill-rule="evenodd" clip-rule="evenodd" d="M10.9997 16C10.9997 15.4477 11.4474 15 11.9997 15H18.6663C20.5527 15 22.333 16.3639 22.333 18.3333C22.333 20.3028 20.5527 21.6667 18.6663 21.6667H11.9997C11.4474 21.6667 10.9997 21.219 10.9997 20.6667V16ZM12.9997 17V19.6667H18.6663C19.7133 19.6667 20.333 18.9506 20.333 18.3333C20.333 17.7161 19.7133 17 18.6663 17H12.9997Z" fill="#979797"/>
<path fill-rule="evenodd" clip-rule="evenodd" d="M15.733 19.6667C16.2853 19.6667 16.733 20.1144 16.733 20.6667V23C16.733 23.5523 16.2853 24 15.733 24C15.1807 24 14.733 23.5523 14.733 23V20.6667C14.733 20.1144 15.1807 19.6667 15.733 19.6667Z" fill="#979797"/>
<path fill-rule="evenodd" clip-rule="evenodd" d="M15.733 8C16.2853 8 16.733 8.44772 16.733 9V11.3333C16.733 11.8856 16.2853 12.3333 15.733 12.3333C15.1807 12.3333 14.733 11.8856 14.733 11.3333V9C14.733 8.44772 15.1807 8 15.733 8Z" fill="#979797"/>
</g>
</g>
</svg>
