<svg width="32" height="32" viewBox="0 0 32 32" fill="none" xmlns="http://www.w3.org/2000/svg">
<g id="icon/transfer">
<g id="vector">
<path d="M8.98678 12.0933C8.73344 12.0933 8.48011 11.9999 8.28011 11.7999L4.06677 7.58663C3.88011 7.39996 3.77344 7.14659 3.77344 6.87992L3.77346 6.87321L3.77344 6.86654C3.77344 6.55031 3.92513 6.26531 4.15884 6.08123L8.28011 1.95992C8.66678 1.57326 9.30677 1.57326 9.69344 1.95992C10.0801 2.34659 10.0801 2.98667 9.69344 3.37333L7.20021 5.86654H23.2268C25.9868 5.86654 28.2268 8.10654 28.2268 10.8665V15.2931C28.2268 15.8531 27.7735 16.2931 27.2268 16.2931C26.6801 16.2931 26.2268 15.8398 26.2268 15.2931V10.8665C26.2268 9.2132 24.8801 7.86654 23.2268 7.86654H7.17341L9.69344 10.3866C10.0801 10.7733 10.0801 11.4133 9.69344 11.7999C9.49344 11.9866 9.24011 12.0933 8.98678 12.0933Z" fill="#979797"/>
<path d="M22.3069 21.6135L24.8134 24.12H8.77344C7.1201 24.12 5.77344 22.7734 5.77344 21.12V16.6934C5.77344 16.1467 5.3201 15.6934 4.77344 15.6934C4.22677 15.6934 3.77344 16.1467 3.77344 16.6934V21.12C3.77344 23.88 6.01344 26.12 8.77344 26.12H24.8137L22.3069 28.6268C21.9203 29.0134 21.9203 29.6535 22.3069 30.0402C22.5069 30.2402 22.7603 30.3335 23.0136 30.3335C23.2803 30.3335 23.5336 30.2402 23.7203 30.0402L27.9336 25.8268C28.1203 25.6401 28.2269 25.3868 28.2269 25.1202C28.2269 24.8535 28.1203 24.6001 27.9336 24.4135L23.7203 20.2002C23.3336 19.8135 22.6936 19.8135 22.3069 20.2002C21.9203 20.5868 21.9203 21.2268 22.3069 21.6135Z" fill="#979797"/>
</g>
</g>
</svg>
