<svg width="32" height="32" viewBox="0 0 32 32" fill="none" xmlns="http://www.w3.org/2000/svg">
<g id="icon/wallet-money">
<g id="vector">
<path fill-rule="evenodd" clip-rule="evenodd" d="M4.80241 21.4803C5.35469 21.4803 5.80241 21.928 5.80241 22.4803C5.80241 24.0278 7.27219 25.4003 9.57577 25.4003C11.8616 25.4003 13.3358 24.018 13.3358 22.4803C13.3358 21.928 13.7835 21.4803 14.3358 21.4803C14.8881 21.4803 15.3358 21.928 15.3358 22.4803V25.187C15.3358 28.1585 12.6199 30.3337 9.57577 30.3337C6.53552 30.3337 3.80241 28.1618 3.80241 25.187V22.4803C3.80241 21.928 4.25012 21.4803 4.80241 21.4803ZM6.14048 26.4744C6.71426 27.5297 7.97403 28.3337 9.57577 28.3337C11.1784 28.3337 12.4346 27.5277 13.0035 26.4685C12.0174 27.0711 10.8118 27.4003 9.57577 27.4003C8.3366 27.4003 7.12854 27.0743 6.14048 26.4744Z" fill="#979797"/>
<path fill-rule="evenodd" clip-rule="evenodd" d="M9.54696 15.6799C8.45577 15.6799 7.50715 16.0538 6.83299 16.645C6.16629 17.2284 5.78703 17.9929 5.78703 18.8132C5.78703 19.2857 5.91752 19.7209 6.14836 20.1074C6.7183 21.0304 7.96871 21.7332 9.5603 21.7332C11.1583 21.7332 12.4039 21.0393 12.9711 20.1094C13.2027 19.7224 13.3337 19.2865 13.3337 18.8132C13.3337 17.9905 12.9539 17.2228 12.2801 16.6614L12.2675 16.6509C11.5852 16.063 10.6311 15.6799 9.54696 15.6799ZM5.51434 15.1413C6.57351 14.2125 7.99814 13.6799 9.54696 13.6799C11.0998 13.6799 12.5165 14.2279 13.5669 15.1302C14.6494 16.0352 15.3337 17.3454 15.3337 18.8132C15.3337 19.6721 15.0919 20.462 14.6845 21.141L14.6814 21.1461C13.6744 22.8016 11.6942 23.7332 9.5603 23.7332C7.42115 23.7332 5.44634 22.7848 4.44166 21.1501L4.43608 21.141C4.02863 20.4619 3.78703 19.672 3.78703 18.8132C3.78703 17.3401 4.47437 16.0513 5.51434 15.1413Z" fill="#979797"/>
<path fill-rule="evenodd" clip-rule="evenodd" d="M9.57577 15.6665C7.35127 15.6665 5.80241 17.1996 5.80241 18.8132V22.4803C5.80241 24.0148 7.28601 25.4003 9.57577 25.4003C11.864 25.4003 13.3358 24.0294 13.3358 22.4803V18.8132C13.3358 17.9904 12.9554 17.2153 12.2935 16.6349C11.6114 16.0485 10.6584 15.6665 9.57577 15.6665ZM3.80241 18.8132C3.80241 15.84 6.52026 13.6665 9.57577 13.6665C11.1316 13.6665 12.5509 14.2167 13.6018 15.1222L13.6077 15.1272C14.6507 16.0399 15.3358 17.3437 15.3358 18.8132V22.4803C15.3358 25.5179 12.5408 27.4003 9.57577 27.4003C6.61219 27.4003 3.80241 25.5058 3.80241 22.4803V18.8132Z" fill="#979797"/>
<path fill-rule="evenodd" clip-rule="evenodd" d="M25.227 14.2665C24.7483 14.2665 24.3272 14.4521 24.0235 14.7641L24.0055 14.7821C23.6508 15.1283 23.4527 15.6214 23.5025 16.145L23.5037 16.1568C23.5742 17.0034 24.3882 17.7332 25.387 17.7332H27.9774C28.1929 17.7193 28.3337 17.5507 28.3337 17.3732V14.6265C28.3337 14.449 28.1929 14.2804 27.9774 14.2665H25.227ZM22.5994 13.3598C23.2816 12.664 24.2168 12.2665 25.227 12.2665H28.0004C28.0123 12.2665 28.0242 12.2667 28.0361 12.2672C29.3067 12.3125 30.3337 13.3408 30.3337 14.6265V17.3732C30.3337 18.6589 29.3067 19.6871 28.0361 19.7325C28.0242 19.7329 28.0123 19.7332 28.0004 19.7332H25.387C23.5076 19.7332 21.6835 18.3589 21.511 16.3288C21.4033 15.1792 21.841 14.1052 22.5994 13.3598Z" fill="#979797"/>
<path fill-rule="evenodd" clip-rule="evenodd" d="M9.33366 5.6665C9.00799 5.6665 8.69896 5.68976 8.40572 5.73487L8.37818 5.73872C6.90174 5.924 5.74111 6.55612 4.94639 7.48852C4.14962 8.42332 3.66699 9.72366 3.66699 11.3332V13.9998C3.66699 14.5521 3.21928 14.9998 2.66699 14.9998C2.11471 14.9998 1.66699 14.5521 1.66699 13.9998V11.3332C1.66699 9.31602 2.2777 7.53636 3.42427 6.19115C4.57015 4.84676 6.19782 3.99971 8.11543 3.75601C8.51117 3.69589 8.91751 3.6665 9.33366 3.6665H21.3337C21.6933 3.6665 22.0813 3.67951 22.473 3.74265C24.407 3.97283 26.053 4.81438 27.2141 6.15983C28.3781 7.50868 29.0003 9.30024 29.0003 11.3332V13.2665C29.0003 13.8188 28.5526 14.2665 28.0003 14.2665H25.227C24.7483 14.2665 24.3272 14.4521 24.0235 14.7641L24.0055 14.7821C23.6508 15.1283 23.4527 15.6214 23.5025 16.145L23.5037 16.1568C23.5742 17.0034 24.3882 17.7332 25.387 17.7332H28.0003C28.5526 17.7332 29.0003 18.1809 29.0003 18.7332V20.6665C29.0003 22.8938 28.2535 24.8275 26.8741 26.2069C25.4947 27.5864 23.5609 28.3332 21.3337 28.3332H18.0003C17.448 28.3332 17.0003 27.8855 17.0003 27.3332C17.0003 26.7809 17.448 26.3332 18.0003 26.3332H21.3337C23.1064 26.3332 24.506 25.7466 25.4599 24.7927C26.4138 23.8388 27.0003 22.4393 27.0003 20.6665V19.7332H25.387C23.5076 19.7332 21.6835 18.3589 21.511 16.3288C21.4033 15.1792 21.841 14.1052 22.5994 13.3598C23.2816 12.664 24.2168 12.2665 25.227 12.2665H27.0003V11.3332C27.0003 9.71277 26.5092 8.40432 25.6999 7.46649C24.8924 6.5308 23.7138 5.90038 22.2182 5.72646C22.2018 5.72456 22.1855 5.72225 22.1693 5.71955C21.9294 5.67957 21.6597 5.6665 21.3337 5.6665H9.33366Z" fill="#979797"/>
</g>
</g>
</svg>
