<svg width="32" height="32" viewBox="0 0 32 32" fill="none" xmlns="http://www.w3.org/2000/svg">
<g id="icon/card-coin">
<g id="vector">
<path fill-rule="evenodd" clip-rule="evenodd" d="M1.66699 22.7465C1.66699 22.1942 2.11471 21.7465 2.66699 21.7465H16.0003C16.5526 21.7465 17.0003 22.1942 17.0003 22.7465C17.0003 23.2988 16.5526 23.7465 16.0003 23.7465H2.66699C2.11471 23.7465 1.66699 23.2988 1.66699 22.7465Z" fill="#979797"/>
<path fill-rule="evenodd" clip-rule="evenodd" d="M3.96141 19.2963C3.83902 19.4177 3.66699 19.7523 3.66699 20.9332V26.4132C3.66699 27.594 3.83902 27.9286 3.96141 28.0501C4.08655 28.1743 4.43124 28.3465 5.62695 28.3465H13.0404C14.2361 28.3465 14.5808 28.1743 14.7059 28.0501C14.8283 27.9286 15.0003 27.594 15.0003 26.4132V20.9332C15.0003 19.7523 14.8283 19.4177 14.7059 19.2963C14.5808 19.1721 14.2361 18.9998 13.0404 18.9998H5.62695C4.43124 18.9998 4.08655 19.1721 3.96141 19.2963ZM2.55253 17.8767C3.31404 17.1209 4.44934 16.9998 5.62695 16.9998H13.0404C14.218 16.9998 15.3533 17.1209 16.1148 17.8767C16.879 18.6353 17.0003 19.7674 17.0003 20.9332V26.4132C17.0003 27.579 16.879 28.7111 16.1148 29.4696C15.3533 30.2254 14.218 30.3465 13.0404 30.3465H5.62695C4.44934 30.3465 3.31404 30.2254 2.55253 29.4696C1.78827 28.7111 1.66699 27.579 1.66699 26.4132V20.9332C1.66699 19.7674 1.78827 18.6353 2.55253 17.8767Z" fill="#979797"/>
<path fill-rule="evenodd" clip-rule="evenodd" d="M29.3337 18.9998C29.8859 18.9998 30.3337 19.4476 30.3337 19.9998C30.3337 25.7121 25.7126 30.3332 20.0003 30.3332C19.6401 30.3332 19.3076 30.1394 19.1301 29.8259C18.9526 29.5124 18.9575 29.1276 19.1428 28.8187L20.5428 26.4853C20.827 26.0118 21.4412 25.8582 21.9148 26.1423C22.3884 26.4265 22.542 27.0407 22.2578 27.5143L21.8961 28.1173C25.5882 27.2607 28.3337 23.9553 28.3337 19.9998C28.3337 19.4476 28.7814 18.9998 29.3337 18.9998Z" fill="#979797"/>
<path fill-rule="evenodd" clip-rule="evenodd" d="M10.1046 3.88242C6.41246 4.73899 3.66699 8.0444 3.66699 11.9998C3.66699 12.5521 3.21928 12.9998 2.66699 12.9998C2.11471 12.9998 1.66699 12.5521 1.66699 11.9998C1.66699 6.28755 6.28804 1.6665 12.0003 1.6665C12.3606 1.6665 12.693 1.8603 12.8705 2.1738C13.048 2.48731 13.0432 2.87206 12.8578 3.181L11.4578 5.51433C11.1737 5.98791 10.5594 6.14148 10.0859 5.85733C9.61227 5.57319 9.4587 4.95893 9.74285 4.48535L10.1046 3.88242Z" fill="#979797"/>
<path fill-rule="evenodd" clip-rule="evenodd" d="M24.667 3.6665C21.9056 3.6665 19.667 5.90508 19.667 8.6665C19.667 11.4279 21.9056 13.6665 24.667 13.6665C27.4284 13.6665 29.667 11.4279 29.667 8.6665C29.667 5.90508 27.4284 3.6665 24.667 3.6665ZM17.667 8.6665C17.667 4.80051 20.801 1.6665 24.667 1.6665C28.533 1.6665 31.667 4.80051 31.667 8.6665C31.667 12.5325 28.533 15.6665 24.667 15.6665C20.801 15.6665 17.667 12.5325 17.667 8.6665Z" fill="#979797"/>
</g>
</g>
</svg>
