<svg width="32" height="32" viewBox="0 0 32 32" fill="none" xmlns="http://www.w3.org/2000/svg">
<g id="icon/medal-star">
<g id="vector">
<path fill-rule="evenodd" clip-rule="evenodd" d="M16.0003 3.6665C11.398 3.6665 7.66699 7.39746 7.66699 11.9998C7.66699 14.8308 9.07774 17.3325 11.2391 18.8401C12.5885 19.7813 14.2285 20.3332 16.0003 20.3332C17.7722 20.3332 19.4122 19.7813 20.7616 18.8401C22.9229 17.3325 24.3337 14.8308 24.3337 11.9998C24.3337 7.39746 20.6027 3.6665 16.0003 3.6665ZM5.66699 11.9998C5.66699 6.2929 10.2934 1.6665 16.0003 1.6665C21.7073 1.6665 26.3337 6.2929 26.3337 11.9998C26.3337 15.3212 24.7658 18.2763 22.3337 20.1653V29.3332C22.3337 29.6967 22.1364 30.0316 21.8184 30.2078C21.5005 30.384 21.1119 30.3738 20.8037 30.1812L16.0003 27.1791L11.197 30.1812C10.8887 30.3738 10.5002 30.384 10.1822 30.2078C9.86427 30.0316 9.66699 29.6967 9.66699 29.3332V20.1653C7.23484 18.2763 5.66699 15.3212 5.66699 11.9998ZM11.667 21.3831V27.5289L15.4703 25.1518C15.7946 24.9492 16.2061 24.9492 16.5303 25.1518L20.3337 27.5289V21.3831C19.0153 21.9929 17.5468 22.3332 16.0003 22.3332C14.4539 22.3332 12.9854 21.9929 11.667 21.3831Z" fill="#979797"/>
<path fill-rule="evenodd" clip-rule="evenodd" d="M14.8571 6.74021C15.316 5.77866 16.6847 5.77865 17.1435 6.74021L18.2052 8.96511L20.6493 9.28729C21.7055 9.42653 22.1285 10.7282 21.3558 11.4618L19.5679 13.159L20.0167 15.583C20.2107 16.6306 19.1034 17.4351 18.167 16.9269L16.0003 15.751L13.8337 16.9269C12.8973 17.4351 11.79 16.6306 11.9839 15.583L12.4328 13.159L10.6449 11.4618C9.87215 10.7282 10.2951 9.42653 11.3514 9.28729L13.7955 8.96511L14.8571 6.74021ZM16.0003 8.98853L15.4291 10.1856C15.2444 10.5726 14.8765 10.8399 14.4514 10.8959L13.1364 11.0693L14.0984 11.9825C14.4094 12.2777 14.5499 12.7102 14.4718 13.1318L14.2303 14.436L15.3961 13.8033C15.773 13.5988 16.2277 13.5988 16.6045 13.8033L17.7703 14.436L17.5288 13.1318C17.4508 12.7102 17.5913 12.2777 17.9022 11.9825L18.8643 11.0693L17.5492 10.8959C17.1241 10.8399 16.7562 10.5726 16.5716 10.1856L16.0003 8.98853Z" fill="#979797"/>
</g>
</g>
</svg>
